<svg viewBox="0 0 783 260" xmlns="http://www.w3.org/2000/svg"><path d="M332.3 1c-10.3 2.1-22.1 9.8-33.6 22-11.9 12.7-19.6 28.7-18.4 38.7 1 9.2 13 20.5 25.9 24.4 6.4 2 8.5 2.1 21.2 1.5 7.8-.3 15.5-.8 17.1-1.1 15.7-2.3 43.4-2.8 49.6-.9 4.8 1.4 1.9 17.6-5.2 30-10.2 17.4-29.7 37.2-52 52.7-7.8 5.4-23.2 13-25.6 12.5-2.5-.5-3.5-6.7-3-17.3 1-16.9 7.6-35.1 17.2-47 2.6-3.3 5.2-6.5 5.7-7.2 2.3-2.9-1.4-1.8-7.4 2.2-17.6 11.8-29.8 34.4-30 55.7 0 6.5.4 8.7 2.6 13.2 5.8 11.9 22 20.3 32.8 17.1 5.5-1.6 25.2-12.9 28.8-16.5.3-.3 3.2-2.7 6.5-5.5 3.3-2.7 9.9-8.7 14.6-13.2l8.6-8.3 1.1 3.9c2.7 8.7 12.6 13.9 24.3 12.7 11.7-1.3 18.7-6.7 21.6-16.6.6-2.1 1.2-2.9 1.5-2 .3.8 1.5 4.6 2.7 8.5 2.3 7.2 5.1 11.6 8.6 13.2 1.1.5 5.2 1 9 1.2 5.7.2 7.8-.2 11.4-2.1 3.7-1.9 4.7-3 5.8-6.8.7-2.5 1.3-5.4 1.3-6.6 0-1.8.6-2 8.3-2.1 12.6-.1 18.2-3.4 20.9-12.4 1-3.5 1.5-3.9 4.4-3.9 2.5 0 3.4.5 4 2.2.4 1.3 1.2 2.6 1.8 3 1.7 1.2 10.6.9 14.1-.3 3.3-1.2 7.8-7.3 9-12.2 1.3-5.1 2.2-2.7 1.3 3.5-.4 3.4-.6 6.9-.3 7.9.8 2.4 5.2 3.2 10.6 2 4.8-1.1 6.4-2.7 8-8.2.9-2.8 1.6-3.5 3-3.2 1 .3 4 0 6.7-.7 4.5-1 5.2-1.6 7.6-6l2.7-4.9 4.3 4.4c2.9 3.1 5.1 4.5 6.9 4.5 2.5 0 2.5.1 1.2 2.7-1.5 2.8-1.1 6.9.9 9 .6.7 4.6 1.7 8.8 2.3 13.1 1.8 31-2.1 43.7-9.6 5.1-2.9 11.4-8.4 9.8-8.4-.4 0-4.4 1.5-8.9 3.4-13.1 5.4-19.1 6.8-25.1 6.1-8.4-1.1-8.4-1.1-3.3-11 7.5-14.6 9.4-24.8 6-32.1-2.1-4.4-4.2-4.8-13.4-2.9-10.7 2.3-14.4 5.2-20.1 15.8-2.7 5.1-3.2 5.6-4.3 4.2-1.8-2.4-9.7-1.1-12.7 2.1-3.1 3.3-3.7 3-4.1-1.9-.3-4.2-.3-4.2-4.3-4.2h-4l.4-3.8c.3-3.7.3-3.7-3.5-3.7-8.5 0-9.6 1.4-12.9 16.5-1.5 6.6-1.9 7.5-2.7 5.6-.5-1.5-1.3-2.1-2.4-1.7-.9.3-2.9.6-4.4.6-2.5 0-3.2.7-4.9 4.2l-1.9 4.3-.1-6c-.2-8.4-.6-8.9-7.9-8-6 .7-6.1.7-7.6 4.8-1.2 3.6-1.5 3.8-1.5 1.5-.1-3.6-.9-3.9-7.8-3.2l-6 .7-1.8 7.1c-1 3.9-2.6 8.6-3.5 10.5l-1.7 3.5-1.6-5c-.9-2.7-2.8-9.4-4.2-14.9-1.5-5.5-3.2-10.5-3.8-11.1-1.5-1.5-14.6-.1-15.7 1.6-.8 1.3-2.5 13.5-3.6 26.3-.4 4.3-1 8-1.4 8.2-1.8 1.1-8.3-43.3-10-68-1.7-25.1-1.4-24.4-10.9-22.9-5.4.9-5.6 1-6.9 4.9-3.9 12-5.8 25.4-7.7 55.6-1.6 26.2-3.1 34.9-7.1 41.7l-2.6 4.4-2.9-2.7c-3.9-3.8-5.6-7.9-6.9-16.4l-1.2-7.2 5.5-10.8c6-11.7 5.6-11.5 8.1-3.9.9 2.9 3.3 2.1 4-1.3 1.3-6.8.7-11.7-1.7-13.6-1.6-1.3-2.6-3.3-3-6.6-1.1-7.8-3.3-11-12.5-18.4-9.5-7.6-13.2-9.6-20.7-11.3-7.2-1.7-31.7-1.4-50.6.5-9 .9-20 1.5-24.4 1.3l-8-.3.2-5.3c.7-15.5 16.9-36.4 35.2-45.5 8.2-4.1 8.8-4.2 18-4.1 7.7 0 10.6.5 14.9 2.4 5.6 2.4 7.2 4.3 7.2 8.5 0 2.7 3.2 9.8 5.8 12.7 2.1 2.4 5.9 2.3 7.2-.2.6-1.1 1.4-4.3 1.7-7 .7-6.2-1-8.6-13.2-17.6-10.4-7.7-19.1-12-28.4-14-7.3-1.5-8.7-1.6-14.8-.4zM606 108.1c-1.5 5.4-4.2 10.9-8.2 16.3-2.8 3.8-3 3.9-2.6 1.3.6-3.2.1-3.4-2.7-.7l-2.1 2-2.6-5.4c-2.3-4.7-2.4-5.3-.9-4.9 4.5 1.2 9.7-1.6 14.6-7.7 2.7-3.3 5-5.8 5.2-5.6s-.1 2.4-.7 4.7zM79 24.1c-23.5 1.6-49.8 8.2-66.8 16.8-7.1 3.6-8.3 4.9-7.6 8.6.5 2.7 3.3 9.5 3.9 9.5.1 0 4.2-1.5 9.1-3.3 16.7-6.2 42.6-13.2 44.6-12.1.3.3.2 1.9-.3 3.7-.6 1.7-1.3 11.3-1.6 21.2s-.7 18.1-.8 18.3c-.1.1-4.2 1.1-9.1 2.2-10.3 2.3-16.7 3.8-35.9 8.3l-14 3.2.2 4.3c.2 4.6 4 13.2 5.8 13.2.6 0 3.4-.7 6.1-1.5C21.1 114 57 105.8 58 106.2c.5.2 1.2 8.4 1.5 18.3.6 22.4 1.7 37.1 3.2 41.9.5 1.8 0 1.9-12.3 1.3-11.2-.5-27.4-3.4-29.2-5.2-.3-.3 0-1.6.6-3 1.4-3 .2-3.9-3.2-2.4-2.1 1-2.6 1.9-2.6 4.6 0 10.1 7.9 17.9 22.3 22 5.7 1.6 41.9 3.6 42.7 2.3.3-.4 3.2-1 6.5-1.4 18.3-2.2 45.1-9.3 56.4-15 6-3.1 14.3-8.4 18.6-11.9 2.8-2.3 3.1-2.4 6.4-1 3.2 1.4 10.9 2 13.6 1.2.6-.2 4.8 1.6 9.5 3.9 10.5 5.3 19.8 6.6 24.9 3.6 1.7-1 3.1-2.1 3.1-2.4s.9-1.6 1.9-2.9l1.8-2.4 4.5 2.7c4.7 2.7 14.1 5.6 18.3 5.6s8.9-5.3 13.1-14.8c.1-.2 2.8 1.1 6 2.8 3.3 1.6 7 3.3 8.4 3.6s3.5.8 4.7 1.1c3.8.9 7.3-.6 9.3-4 2.3-3.6 2.6-9 .8-10.4s-12.1-3.3-17.5-3.3c-4.3 0-4.4-.1-6.5-4.9-1.8-4.6-2.8-5.5-11.4-10.6-10.8-6.4-12.6-6.3-14.4.8-1.8 6.7-3.3 11-5.2 14.1l-1.6 2.9-.7-4.9c-1.4-10.5-1.1-10.1-9.3-14.9-4.2-2.5-8.2-4.5-8.8-4.5-1.9 0-3.4 4.4-3.9 12-.9 12.1-6.9 22-13.3 22-3.4 0-3.5-1.9-.3-5.6 8.3-9.4 11-22.8 5.8-29.5-1.7-2.3-13.1-7.9-16-7.9-2.5 0-6.6 3.8-9 8.4l-1.5 3-.7-3.5c-3.4-15.8-20.5-29.2-43.9-34.4-2.8-.6-2.7-.7 4.3-5 11-6.8 16.3-13.4 16.4-20.5 0-1.9-1.2-7.5-2.7-12.5-3.6-11.4-6.5-14.5-17.4-17.9-12.1-3.8-30-5-52.2-3.5zm48.8 19.3c7.4 2 13.2 4.6 13.2 6 0 .5-2.5 3.4-5.5 6.3-4 3.9-8.6 6.8-17.7 11.2C106.9 72.1 86 80 83.1 80c-.6 0-1.1-2-1.1-4.8 0-6.4-4.5-27.7-6.4-30.7l-1.5-2.3 7.2-.6c18-1.5 36.3-.8 46.5 1.8zm-.8 58.2c8.4 1.4 20.4 5.5 26.7 9.3 6.5 3.8 13.3 9.4 13.3 10.9 0 1.8-4.7 8-9.4 12.6-7.2 7-18.3 14.3-29 18.9-9.2 3.9-31 10-40.5 11.3l-5.3.7.7-31.4c.4-17.3.9-31.6 1.1-31.8s4.8-.6 10.1-.9c5.4-.2 10-.6 10.3-.9.5-.5 16.4.4 22 1.3zM567.8 192.4c-.1.2-12.2.6-26.8 1-14.6.3-29.9.8-34 1.1s-19.4 1.2-34 2-29 1.7-32 2-17 1.4-31 2.5-34 2.9-44.5 4c-32 3.4-55.7 6-63 7-3.8.6-23.6 3.3-44 6.1-20.3 2.7-42.4 5.9-49 6.9-18.7 3-42.7 6.7-69.5 10.7-22.1 3.2-26.7 3.6-47 3.7-21.2.1-22.8 0-28-2.2-3-1.2-6.1-2.2-6.7-2.2-3 0-.4 11 3.5 15.3 2.7 3.1 10.1 6.3 17.7 7.8 8.9 1.8 39.2 1.8 53.5.1 11.5-1.4 55-7.6 86.5-12.3 26.3-3.9 72.9-10.5 88-12.4 6.6-.8 13.6-1.7 15.5-2 3.1-.4 42.2-4.9 52.5-6 18.5-2 51.1-5 76.5-7 13.3-1 48.9-3.4 59.5-4 25.6-1.3 31.4-1.6 38.5-2 4.1-.2 13.4-.7 20.5-1 7.2-.3 22.2-1 33.5-1.5 37.5-1.8 105-2.3 142.4-1.1 19.7.7 36.1.9 36.4.6 1-1-.8-1.8-6-2.6-43.5-7-75.6-10.4-126.3-13.4-11.1-.7-82-1.6-82.7-1.1z"/></svg>